<?xml version="1.0" standalone="no"?>
<!DOCTYPE svg PUBLIC "-//W3C//DTD SVG 20010904//EN"
 "http://www.w3.org/TR/2001/REC-SVG-20010904/DTD/svg10.dtd">
<svg version="1.0" xmlns="http://www.w3.org/2000/svg"
 width="256.000000pt" height="256.000000pt" viewBox="0 0 256.000000 256.000000"
 preserveAspectRatio="xMidYMid meet">

<g transform="translate(0.000000,256.000000) scale(0.100000,-0.100000)"
fill="#000000" stroke="none">
<path d="M835 2546 c-17 -7 -37 -21 -45 -31 -8 -9 -41 -35 -75 -57 -79 -53
-87 -65 -80 -109 l6 -37 -58 -19 -58 -20 -2 -61 -3 -61 43 -4 42 -4 -42 -1
c-39 -2 -43 -5 -43 -27 0 -23 4 -25 45 -25 25 0 45 -4 45 -10 0 -5 -20 -10
-45 -10 -41 0 -45 -2 -45 -25 0 -22 4 -25 40 -25 36 0 40 -2 40 -25 0 -24 -3
-25 -55 -25 l-55 0 0 -240 0 -239 45 -31 45 -31 0 -288 0 -288 -45 -41 -46
-41 3 -127 3 -126 95 -50 c95 -50 190 -115 190 -130 0 -17 81 -66 119 -72 l39
-6 4 -71 c2 -38 -1 -74 -5 -78 -5 -5 -7 -30 -5 -57 l3 -49 84 -3 c94 -3 101 1
101 60 0 27 -6 41 -22 52 -18 13 -19 16 -5 16 15 0 17 11 17 75 l0 75 29 0
c28 0 30 -2 33 -48 l3 -47 105 0 105 0 3 58 c2 31 4 57 5 57 18 0 275 34 342
46 157 26 181 37 263 123 l72 76 0 848 c0 824 -1 849 -20 886 -35 70 -89 91
-360 140 -227 42 -806 141 -816 141 -5 -1 -23 -7 -39 -14z m376 -75 c598 -102
730 -128 776 -158 54 -35 53 -24 53 -923 l0 -830 -72 -74 -73 -74 -90 -20
c-145 -33 -535 -77 -787 -89 l-137 -6 -33 31 c-17 18 -35 32 -39 32 -26 0 -29
96 -29 1054 0 634 4 1004 10 1027 12 43 73 91 106 84 12 -3 154 -27 315 -54z
m-455 -40 c-3 -4 -6 -461 -6 -1015 -1 -553 -3 -1006 -5 -1006 -2 0 -20 14 -40
31 l-35 31 0 958 0 957 38 26 c38 26 57 34 48 18z m-117 -178 c0 -16 -3 -22
-6 -15 -2 6 -19 12 -36 12 l-32 1 30 14 c42 19 45 18 44 -12z m-1 -1145 c-2
-333 -6 -609 -10 -613 -3 -3 -29 5 -57 19 l-51 26 0 105 0 105 45 41 45 42 0
303 c0 335 4 315 -64 359 l-26 17 0 214 0 213 58 3 57 3 3 -115 c1 -63 1 -388
0 -722z m722 -853 l0 -45 -75 0 -75 0 0 34 0 34 68 9 c37 6 70 11 75 12 4 0 7
-19 7 -44z m-280 -39 c0 -39 -4 -55 -15 -60 -9 -3 -15 -18 -15 -36 0 -18 6
-33 15 -36 8 -4 15 -15 15 -25 0 -17 -8 -19 -60 -19 -52 0 -60 2 -60 19 0 10
9 21 20 24 25 6 29 67 5 67 -12 0 -15 13 -15 60 l0 60 55 0 55 0 0 -54z"/>
<path d="M1262 1053 l3 -328 228 -3 227 -2 0 315 0 315 -27 0 c-16 0 -107 7
-203 15 -96 8 -187 15 -203 15 l-27 0 2 -327z m251 277 c70 -6 139 -10 153
-10 l24 0 -1 -222 c0 -144 -3 -215 -9 -200 -11 26 -64 31 -78 6 -8 -14 -10
-14 -21 0 -19 23 -57 20 -75 -6 -13 -18 -16 -19 -16 -5 0 27 -50 34 -70 10
-16 -20 -17 -20 -28 -2 -17 26 -48 24 -67 -5 -18 -26 -11 -52 16 -67 20 -10
59 3 59 21 0 6 9 1 20 -10 25 -25 35 -25 59 -1 17 17 21 18 32 5 17 -21 56
-17 73 8 13 18 16 19 16 5 0 -10 11 -19 27 -23 20 -6 31 -2 45 16 18 22 18 22
18 -39 l0 -61 -200 0 -200 0 0 300 0 301 48 -6 c26 -3 105 -10 175 -15z m-143
-461 c0 -5 -4 -9 -10 -9 -5 0 -10 7 -10 16 0 8 5 12 10 9 6 -3 10 -10 10 -16z
m90 6 c0 -8 -4 -15 -10 -15 -5 0 -10 7 -10 15 0 8 5 15 10 15 6 0 10 -7 10
-15z m100 0 c0 -8 -7 -15 -15 -15 -8 0 -15 7 -15 15 0 8 7 15 15 15 8 0 15 -7
15 -15z m90 0 c0 -8 -4 -15 -10 -15 -5 0 -10 7 -10 15 0 8 5 15 10 15 6 0 10
-7 10 -15z"/>
<path d="M1367 1253 c-4 -3 -7 -52 -7 -108 l0 -102 92 -7 c50 -3 108 -6 130
-6 l38 0 0 109 0 108 -77 7 c-98 8 -168 8 -176 -1z m169 -33 l54 0 0 -81 0
-81 -31 6 c-17 3 -62 6 -100 6 l-69 0 0 81 0 82 46 -7 c26 -3 71 -6 100 -6z"/>
</g>
</svg>
