<?xml version="1.0" encoding="iso-8859-1"?>
<!-- Generator: Adobe Illustrator 17.1.0, SVG Export Plug-In . SVG Version: 6.00 Build 0)  -->
<!DOCTYPE svg PUBLIC "-//W3C//DTD SVG 1.1//EN" "http://www.w3.org/Graphics/SVG/1.1/DTD/svg11.dtd">
<svg version="1.1" id="Capa_1" xmlns="http://www.w3.org/2000/svg" xmlns:xlink="http://www.w3.org/1999/xlink" x="0px" y="0px"
	 viewBox="0 0 347.586 347.586" style="enable-background:new 0 0 347.586 347.586;" xml:space="preserve">
<path d="M321.546,67.293h-12v-28.5c0-5.238-4.262-9.5-9.5-9.5h-7c-5.238,0-9.5,4.262-9.5,9.5v28.5h-16v-28.5
	c0-5.238-4.262-9.5-9.5-9.5h-7c-5.238,0-9.5,4.262-9.5,9.5v28.5h-11c-3.86,0-7,3.141-7,7v17c0,3.859,3.14,7,7,7h4.55v28.002
	c0,10.477,8.523,19,19,19h5.553v103.291c0,36.944-30.056,67-67,67c-18.619,0-35.482-7.64-47.637-19.942h29.246
	c14.336,0,26-11.663,26-26V54.716c0-14.337-11.664-26-26-26h-17.144V15c0-8.271-6.729-15-15-15H77.183c-8.271,0-15,6.729-15,15
	v13.716H45.04c-14.336,0-26,11.663-26,26v214.928c0,14.337,11.664,26,26,26h60.527c16.769,30.909,49.516,51.942,87.083,51.942
	c54.589,0,99-44.411,99-99V145.295h4.584c10.477,0,19-8.523,19-19V98.293h6.313c3.86,0,7-3.141,7-7v-17
	C328.546,70.434,325.406,67.293,321.546,67.293z M49.04,58.716h121.219V74.64H49.04V58.716z"/>
<g>
</g>
<g>
</g>
<g>
</g>
<g>
</g>
<g>
</g>
<g>
</g>
<g>
</g>
<g>
</g>
<g>
</g>
<g>
</g>
<g>
</g>
<g>
</g>
<g>
</g>
<g>
</g>
<g>
</g>
</svg>
