<?xml version="1.0" encoding="utf-8"?>
<!-- Svg Vector Icons : http://www.onlinewebfonts.com/icon -->
<!DOCTYPE svg PUBLIC "-//W3C//DTD SVG 1.1//EN" "http://www.w3.org/Graphics/SVG/1.1/DTD/svg11.dtd">
<svg version="1.1" xmlns="http://www.w3.org/2000/svg" xmlns:xlink="http://www.w3.org/1999/xlink" x="0px" y="0px" viewBox="0 0 1000 1000" enable-background="new 0 0 1000 1000" xml:space="preserve">
<metadata> Svg Vector Icons : http://www.onlinewebfonts.com/icon </metadata>
<g><path d="M800.7,463.2C782.3,311.5,653.1,197.1,500,197.1c-153.1,0-282.4,114.4-300.7,266.1H10v73.6h189.3C217.6,688.5,346.9,802.9,500,802.9c153,0,282.3-114.4,300.7-266.1H990v-73.6H800.7z M500,729.3c-126.7,0-229.3-102.6-229.3-229.3c0-126.7,102.6-229.3,229.3-229.3c126.7,0,229.3,102.6,229.3,229.3C729.3,626.7,626.7,729.3,500,729.3z"/><path d="M474.7,344.3h50.1l103.6,269H578l-25.3-71.2H445.4l-25.2,71.2h-48.6L474.7,344.3z M458.2,506.3h82.1L500,390.7h-1.2L458.2,506.3z"/></g>
</svg>