<?xml version="1.0" encoding="utf-8"?>
<!DOCTYPE svg PUBLIC "-//W3C//DTD SVG 1.1//EN" "http://www.w3.org/Graphics/SVG/1.1/DTD/svg11.dtd">
<svg height="554.883px" id="Capa_1" style="enable-background:new 0 0 554.883 554.883;" version="1.1" viewBox="0 0 554.883 554.883" width="554.883px" x="0px" xml:space="preserve" xmlns="http://www.w3.org/2000/svg" xmlns:xlink="http://www.w3.org/1999/xlink" y="0px">
<g transform="scale(1.08376) translate(0.00,0.00)">
<g fill="#000000" stroke="none" transform="translate(0.000000,512.000000) scale(0.100000,-0.100000)">
<path d="M855 5110 c-100 -14 -185 -39 -280 -85 -111 -52 -169 -94 -263 -187 -405 -400 -415 -1094 -22 -1512 125 -133 284 -230 455 -278 l80 -23 1165 -3 c641 -1 1175 0 1187 3 13 3 30 19 39 36 13 26 13 36 3 60 -6 16 -17 33 -23 37 -6 4 -537 9 -1181 12 l-1170 5 -75 23 c-259 80 -464 277 -559 538 -164 449 25 958 429 1154 166 80 67 75 1590 75 l1355 0 85 -23 c318 -85 569 -336 652 -652 31 -121 31 -320 -1 -440 -99 -374 -419 -643 -801 -675 -41 -3 -85 -8 -98 -11 -31 -6 -53 -58 -40 -94 15 -44 46 -54 145 -47 252 19 482 125 663 307 138 137 227 291 278 480 23 84 26 114 26 260 0 146 -3 176 -26 260 -51 189 -140 343 -278 480 -137 137 -288 225 -480 279 l-95 26 -1350 1 c-742 1 -1377 -2 -1410 -6z"/>
<path d="M4301 4934 c0 -11 3 -14 6 -6 3 7 2 16 -1 19 -3 4 -6 -2 -5 -13z"/>
<path d="M4331 4934 c0 -11 3 -14 6 -6 3 7 2 16 -1 19 -3 4 -6 -2 -5 -13z"/>
<path d="M899 4805 c-138 -28 -274 -101 -378 -206 -334 -334 -281 -884 111 -1150 439 -298 1046 -50 1152 471 l13 65 841 5 841 5 22 22 c29 29 29 77 0 106 l-22 22 -841 5 -842 5 -12 66 c-33 181 -160 368 -321 475 -161 107 -372 147 -564 109z m276 -150 c113 -24 208 -77 295 -164 125 -127 174 -244 174 -421 0 -177 -49 -294 -174 -421 -126 -127 -284 -188 -455 -175 -160 12 -271 62 -386 176 -238 237 -238 602 0 841 149 149 342 207 546 164z"/>
<path d="M1150 4125 c-91 -91 -169 -165 -175 -165 -5 0 -51 41 -102 92 -75 75 -97 91 -122 91 -43 0 -71 -28 -71 -73 0 -33 11 -47 133 -168 109 -108 139 -132 162 -132 24 0 63 34 237 207 194 194 208 210 208 244 0 45 -25 69 -71 69 -31 0 -50 -16 -199 -165z"/>
<path d="M860 2710 c-344 -42 -646 -284 -779 -624 -182 -467 -44 -987 339 -1278 81 -62 220 -131 325 -160 l80 -23 1170 -3 c875 -2 1176 0 1192 9 35 19 48 61 29 98 -9 17 -26 33 -39 36 -12 3 -542 6 -1177 8 l-1155 2 -75 23 c-259 80 -464 277 -559 538 -164 449 25 958 429 1154 166 80 66 75 1595 75 l1360 0 77 -22 c327 -93 567 -335 650 -656 31 -116 31 -318 0 -434 -98 -377 -417 -646 -802 -678 -111 -9 -120 -12 -134 -47 -17 -39 -5 -80 29 -98 34 -18 176 -7 295 24 185 47 341 137 480 276 138 137 227 291 278 480 23 84 26 114 26 260 0 146 -3 176 -26 260 -51 189 -140 343 -278 480 -137 137 -288 225 -480 279 l-95 26 -1345 1 c-740 1 -1374 -2 -1410 -6z"/>
<path d="M3299 2405 c-285 -57 -531 -303 -583 -584 l-12 -66 -842 -5 -841 -5 -22 -22 c-28 -28 -28 -79 1 -107 20 -21 25 -21 862 -26 l842 -5 12 -66 c65 -354 409 -618 774 -596 118 8 192 27 295 78 297 146 466 487 401 809 -84 414 -476 677 -887 595z m276 -150 c269 -57 475 -310 475 -585 0 -323 -277 -600 -600 -600 -275 0 -528 206 -585 475 -43 204 15 397 164 546 149 149 342 207 546 164z"/>
<path d="M3175 1945 c-45 -44 -35 -68 72 -176 l97 -99 -97 -99 c-107 -108 -117 -132 -72 -176 44 -45 68 -35 176 72 l99 97 99 -97 c108 -107 132 -117 176 -72 45 44 35 68 -72 176 l-97 99 97 99 c107 108 117 132 72 176 -44 45 -68 35 -176 -72 l-99 -97 -99 97 c-108 107 -132 117 -176 72z"/>
</g></g></svg>
