<?xml version="1.0" encoding="utf-8"?>
<!-- Generator: Adobe Illustrator 17.0.0, SVG Export Plug-In . SVG Version: 6.00 Build 0)  -->
<!DOCTYPE svg PUBLIC "-//W3C//DTD SVG 1.1//EN" "http://www.w3.org/Graphics/SVG/1.1/DTD/svg11.dtd">
<svg version="1.1" id="Layer_1" xmlns="http://www.w3.org/2000/svg" xmlns:xlink="http://www.w3.org/1999/xlink" x="0px" y="0px"
	 width="512px" height="512px" viewBox="0 0 512 512" enable-background="new 0 0 512 512" xml:space="preserve">
<g>
	<g>
		<g>
			<rect x="119.471" y="470.479" fill="#2D2B2B" width="273.057" height="39.521"/>
		</g>
	</g>
	<g>
		<g>
			<g>
				<polygon fill="#2D2B2B" points="264.58,2 247.769,2 247.665,2.016 319.903,479.813 336.442,477.312 				"/>
			</g>
			<g>
				<polygon fill="#2D2B2B" points="247.42,2 175.558,477.312 192.097,479.813 264.335,2.016 264.231,2 				"/>
			</g>
		</g>
	</g>
	<g>
		<g>
			<g>
				<path fill="#2D2B2B" d="M341.403,191.608l47.308,46.707H123.289l47.308-46.707H341.403 M345.828,180.83h-4.424H170.597h-4.424
					l-3.148,3.108l-47.308,46.707L97.03,249.094h26.259h265.423h26.259l-18.686-18.449l-47.308-46.707L345.828,180.83
					L345.828,180.83z"/>
			</g>
			<g>
				<polygon fill="#2D2B2B" points="158.47,245.27 158.47,191.609 163.859,191.609 163.859,231.36 204.676,186.588 222.71,232.75 
					256.269,186.664 282.782,232.839 308.481,186.659 341.961,231.55 348.171,191.199 353.498,192.02 345.329,245.081 
					309.139,196.559 282.855,243.792 255.732,196.554 221.273,243.881 202.813,196.63 				"/>
			</g>
		</g>
	</g>
	<g>
		<g>
			<g>
				<path fill="#2D2B2B" d="M316.922,86.31l33.747,33.318H161.332l33.747-33.318H316.922 M320.078,78.621h-3.156H195.078h-3.156
					l-2.246,2.217l-33.747,33.318l-13.329,13.16h18.731h189.336H369.4l-13.329-13.16l-33.747-33.318L320.078,78.621L320.078,78.621z
					"/>
			</g>
			<g>
				<polygon fill="#2D2B2B" points="186.428,124.589 186.428,86.31 190.272,86.31 190.272,114.666 219.389,82.729 232.253,115.658 
					256.192,82.783 275.104,115.721 293.437,82.779 317.319,114.802 321.75,86.017 325.549,86.603 319.722,124.454 293.906,89.841 
					275.157,123.534 255.809,89.837 231.228,123.598 218.06,89.892 				"/>
			</g>
		</g>
	</g>
	<g>
		<g>
			<rect x="376.351" y="249.094" fill="#2D2B2B" width="13.473" height="15.943"/>
		</g>
	</g>
	<g>
		<rect x="122.176" y="249.094" fill="#2D2B2B" width="13.473" height="15.943"/>
	</g>
	<g>
		<g>
			<rect x="343.945" y="127.317" fill="#2D2B2B" width="9.552" height="11.304"/>
		</g>
	</g>
	<g>
		<g>
			<rect x="158.502" y="127.019" fill="#2D2B2B" width="9.552" height="11.304"/>
		</g>
	</g>
	<g>
		<g>
			<path fill="#2D2B2B" d="M193.508,470.479"/>
		</g>
	</g>
	<g>
		<g>
			<polygon fill="#2D2B2B" points="197.11,474.487 189.905,466.472 298.178,369.109 208.22,314.624 279.742,249.869 
				231.975,174.216 261.997,124.531 271.224,130.104 244.643,174.089 293.694,251.774 226.183,312.903 316.183,367.415 			"/>
		</g>
	</g>
</g>
</svg>
