<?xml version="1.0" standalone="no"?>
<!DOCTYPE svg PUBLIC "-//W3C//DTD SVG 20010904//EN"
 "http://www.w3.org/TR/2001/REC-SVG-20010904/DTD/svg10.dtd">
<svg version="1.0" xmlns="http://www.w3.org/2000/svg"
 width="256.000000pt" height="256.000000pt" viewBox="0 0 256.000000 256.000000"
 preserveAspectRatio="xMidYMid meet">
<metadata>
Created by potrace 1.16, written by Peter Selinger 2001-2019
</metadata>
<g transform="translate(0.000000,256.000000) scale(0.021585,-0.030918)"
fill="#000000" stroke="none">
<path d="M1195 8212 c-63 -39 -64 -48 -7 -105 l52 -52 32 32 c37 37 42 84 12
113 -30 28 -56 32 -89 12z"/>
<path d="M8480 8010 l-945 -5 -70 -24 c-223 -74 -385 -211 -480 -406 -80 -163
-78 -147 -82 -792 l-4 -573 90 0 91 0 0 558 c0 617 -1 606 66 741 25 51 58 96
108 146 78 78 153 124 261 158 l70 22 1760 0 1760 0 65 -24 c116 -42 121 -30
-83 -192 -190 -152 -678 -540 -1047 -833 -118 -94 -339 -270 -491 -391 -152
-121 -373 -296 -492 -390 -118 -93 -216 -172 -216 -175 0 -3 18 -13 40 -24 22
-10 52 -33 66 -51 l27 -34 65 52 c85 67 495 392 771 612 369 293 1568 1245
1597 1267 16 13 97 -97 130 -177 54 -129 53 -77 53 -1632 l0 -1443 -633 0
c-349 0 -904 -3 -1235 -7 l-602 -6 0 -84 0 -83 1235 7 1235 6 0 -524 c0 -428
-3 -534 -15 -579 -55 -208 -220 -374 -430 -433 -67 -19 -109 -20 -1047 -25
l-978 -4 0 -84 0 -84 64 0 64 0 4 -144 c3 -137 4 -146 27 -170 17 -18 35 -26
57 -26 81 0 94 28 94 205 l0 135 215 0 215 0 0 -135 c0 -175 13 -205 89 -205
16 0 40 9 55 21 l26 20 0 150 0 149 175 0 175 0 0 -139 c0 -135 1 -140 26
-170 31 -38 78 -41 118 -10 l26 20 0 150 0 149 249 0 c272 0 352 9 473 56 72
27 189 100 250 156 97 89 184 235 225 378 17 62 18 154 15 2150 -3 1770 -5
2096 -18 2156 -54 264 -247 486 -500 575 -156 54 -134 54 -2764 39z"/>
<path d="M7799 7121 c-31 -31 -36 -59 -17 -94 25 -47 12 -46 596 -47 l553 0
24 25 c17 16 25 35 25 60 0 25 -8 44 -25 60 l-24 25 -551 0 -552 0 -29 -29z"/>
<path d="M2805 6621 l-2470 -6 -67 -33 c-67 -33 -114 -82 -148 -157 -11 -25
-13 -391 -11 -2290 3 -2231 3 -2261 23 -2313 34 -92 107 -156 208 -182 35 -9
611 -11 2503 -5 l2457 8 0 84 0 85 -2462 -7 -2463 -7 -32 21 c-65 41 -60 -139
-67 2301 -7 2175 -7 2226 12 2259 10 19 34 43 53 52 32 16 211 17 2540 22
2468 6 2506 6 2537 -13 18 -11 41 -34 52 -52 18 -31 20 -51 20 -285 0 -139 2
-253 5 -253 2 0 19 9 37 20 18 11 55 23 81 26 l48 7 -3 251 c-4 284 -6 293
-84 376 -59 63 -119 88 -220 93 -43 2 -1191 1 -2549 -2z"/>
<path d="M7799 6601 c-17 -18 -29 -40 -29 -56 0 -16 12 -38 29 -56 l29 -29
542 0 c571 0 587 1 604 45 13 36 6 82 -17 103 l-23 22 -553 0 -553 0 -29 -29z"/>
<path d="M6344 6016 c-117 -37 -201 -136 -228 -270 l-13 -61 -244 -5 c-208 -4
-249 -8 -276 -23 -55 -30 -103 -78 -131 -131 l-27 -51 -2 -1065 c-2 -586 1
-1731 5 -2545 l7 -1480 25 -48 c30 -59 86 -112 147 -138 43 -18 85 -19 1543
-19 1470 0 1500 0 1552 20 68 25 121 69 156 128 l27 47 0 2545 0 2545 -28 57
c-30 61 -74 105 -140 140 -40 22 -55 23 -283 26 l-242 3 -4 48 c-10 103 -90
215 -188 264 l-45 22 -785 2 c-619 1 -794 -1 -826 -11z m2320 -517 c59 -47 55
147 56 -2573 2 -2274 0 -2499 -14 -2521 -38 -58 67 -54 -1537 -61 -1472 -6
-1474 -6 -1506 15 -18 11 -39 32 -49 46 -15 23 -17 208 -21 2528 l-6 2502 23
29 c47 58 -41 55 1556 56 l1471 0 27 -21z"/>
<path d="M6748 5343 l-978 -3 0 -343 0 -342 1385 3 1385 2 0 345 0 345 -407
-2 c-225 -2 -848 -4 -1385 -5z"/>
<path d="M5770 3965 l0 -345 1383 2 1382 3 3 343 2 342 -1385 0 -1385 0 0
-345z"/>
<path d="M5933 3273 l-163 -3 0 -340 0 -340 1384 0 c874 0 1387 4 1391 10 3 5
3 160 -1 345 l-7 335 -1221 -2 c-672 -1 -1294 -4 -1383 -5z"/>
<path d="M5772 1898 l3 -343 415 -3 c228 -2 853 0 1388 4 l972 6 0 339 0 339
-1390 0 -1390 0 2 -342z"/>
<path d="M5777 1203 c-4 -3 -7 -159 -7 -345 l0 -338 1390 0 1390 0 0 345 0
345 -1383 0 c-761 0 -1387 -3 -1390 -7z"/>
<path d="M9750 5511 c-19 -4 -62 -19 -95 -34 -50 -23 -87 -56 -228 -200 -93
-95 -175 -182 -184 -194 -23 -35 -9 -81 32 -100 54 -26 105 0 200 100 43 45
106 111 139 146 85 88 135 116 211 116 102 -1 153 -40 305 -234 74 -94 143
-157 209 -191 53 -27 148 -43 208 -36 127 15 202 67 401 276 137 144 152 163
152 195 0 47 -29 75 -77 75 -53 0 -88 -25 -173 -121 -149 -168 -211 -224 -274
-243 -120 -38 -205 9 -343 190 -164 216 -305 290 -483 255z"/>
<path d="M620 5413 c-39 -12 -62 -29 -80 -59 -19 -30 -20 -52 -20 -620 0 -552
1 -591 18 -623 38 -70 41 -71 470 -71 422 0 430 1 473 61 l24 34 -3 595 c-4
661 -1 634 -72 671 -32 18 -62 19 -415 18 -209 0 -387 -3 -395 -6z m712 -668
c0 -278 1 -511 2 -517 1 -10 -71 -14 -321 -16 l-323 -2 0 520 0 520 320 0 320
0 2 -505z"/>
<path d="M918 5016 c-43 -19 -89 -67 -111 -116 -25 -56 -35 -217 -18 -295 25
-109 95 -180 186 -185 79 -5 112 0 151 26 85 55 118 145 112 299 -6 146 -45
226 -133 266 -46 21 -145 24 -187 5z m172 -104 c37 -38 54 -121 47 -229 -6
-84 -20 -125 -55 -156 -28 -25 -81 -32 -123 -14 -52 21 -72 70 -77 187 -5 113
9 172 48 212 24 23 37 28 80 28 43 0 56 -5 80 -28z"/>
<path d="M1843 5405 c-18 -8 -42 -29 -53 -47 -20 -32 -20 -45 -18 -635 l3
-602 30 -31 c16 -17 45 -35 65 -41 22 -7 170 -9 410 -7 414 3 413 3 453 67
l22 36 -4 590 c-4 646 -2 628 -64 665 -30 19 -52 20 -422 20 -312 -1 -396 -4
-422 -15z m737 -669 l0 -513 -77 -7 c-42 -3 -186 -6 -320 -6 l-243 0 0 520 0
520 320 0 320 0 0 -514z"/>
<path d="M2165 5016 c-90 -41 -135 -136 -135 -289 0 -51 7 -112 15 -141 18
-62 75 -133 122 -152 42 -18 144 -18 186 -1 42 18 101 84 118 133 19 52 19
266 0 318 -17 49 -76 115 -118 133 -41 17 -149 16 -188 -1z m167 -93 c44 -40
53 -72 53 -198 0 -127 -8 -158 -54 -199 -30 -27 -112 -27 -142 0 -46 41 -54
72 -54 199 0 138 14 182 68 209 39 20 100 15 129 -11z"/>
<path d="M3095 5410 c-34 -14 -67 -57 -74 -97 -3 -21 -4 -298 -1 -616 l5 -579
37 -34 38 -34 410 0 410 0 38 34 37 34 3 604 2 604 -23 35 c-40 59 -35 59
-467 58 -217 0 -404 -4 -415 -9z m735 -675 l0 -515 -320 0 -320 0 0 515 0 515
320 0 320 0 0 -515z"/>
<path d="M3506 5011 c-10 -11 -50 -36 -89 -57 -40 -20 -74 -38 -75 -40 -7 -5
22 -74 31 -74 17 0 53 23 90 58 l37 36 0 -252 0 -252 50 0 50 0 0 300 0 300
-38 0 c-26 0 -45 -7 -56 -19z"/>
<path d="M4327 5402 c-15 -9 -37 -36 -48 -58 -19 -41 -20 -59 -17 -615 3 -633
1 -612 67 -656 34 -23 34 -23 428 -23 435 0 435 0 473 63 19 31 20 54 20 620
0 639 2 621 -56 666 -26 21 -36 21 -433 21 -367 -1 -409 -2 -434 -18z m753
-667 l0 -515 -320 0 -320 0 0 515 0 515 320 0 320 0 0 -515z"/>
<path d="M4739 5004 c-13 -14 -52 -39 -86 -55 -35 -17 -63 -35 -63 -40 0 -15
30 -69 38 -69 12 0 53 30 90 63 l32 31 0 -252 0 -252 50 0 50 0 0 300 0 300
-43 0 c-34 0 -49 -6 -68 -26z"/>
<path d="M9560 3867 c-49 -25 -50 -35 -48 -429 l3 -366 24 -26 24 -26 739 0
739 0 24 25 25 24 0 379 c0 359 -1 381 -19 403 l-19 24 -734 2 c-575 2 -738 0
-758 -10z m1360 -417 l0 -260 -615 0 -615 0 0 260 0 260 615 0 615 0 0 -260z"/>
<path d="M3247 3278 c-3 -13 -38 -188 -78 -390 -40 -203 -76 -368 -80 -368 -3
0 -9 15 -13 33 -3 17 -40 191 -83 385 l-77 352 -133 0 c-73 0 -133 -2 -133 -5
0 -2 -22 -104 -49 -227 -26 -123 -63 -294 -81 -380 -19 -87 -37 -158 -40 -158
-3 0 -16 51 -29 113 -18 90 -103 510 -127 630 l-6 27 -105 0 -105 0 7 -32 c13
-59 198 -824 216 -891 l10 -38 131 3 131 3 88 343 c48 189 90 346 93 349 2 3
9 -12 15 -33 22 -86 104 -405 127 -499 14 -55 30 -115 36 -133 l10 -33 131 3
131 3 113 475 c62 261 113 478 113 483 0 4 -47 7 -104 7 -99 0 -104 -1 -109
-22z"/>
<path d="M3592 2818 l3 -483 45 -3 c25 -2 69 -1 98 3 l52 6 0 242 c0 224 2
244 20 275 11 18 34 41 52 52 41 25 124 27 157 4 46 -33 51 -65 51 -329 l0
-245 101 0 101 0 -4 278 c-4 263 -6 280 -28 330 -43 99 -134 150 -248 139 -70
-6 -128 -34 -169 -80 l-30 -35 -7 76 c-3 41 -6 115 -6 164 l0 88 -95 0 -95 0
2 -482z"/>
<path d="M1320 2810 l0 -480 95 0 95 0 0 108 0 108 59 58 59 59 109 -167 108
-166 108 0 c59 0 107 3 107 6 0 3 -67 97 -148 208 -82 110 -152 207 -157 215
-6 11 32 53 146 162 l154 148 -116 1 -116 0 -115 -122 c-63 -68 -133 -143
-156 -168 l-41 -45 -1 278 0 277 -95 0 -95 0 0 -480z"/>
</g>
</svg>
